PathFileType	4	(X/Y/Z)	Patient4_TMGait_0pt4_03_right_05.trc.trc
DataRate	CameraRate	NumFrames	NumMarkers	Units	OrigDataRate	OrigDataStartFrame	OrigNumFrames
77.348066298343	77.348066298343	4	33	mm	77.348066298343	53	       141
Frame#	Time	Sacral			L.Shoulder			Chest			R.Shoulder			Neck			R.ASIS			L.ASIS			R.Thigh.Superior			R.Thigh.Lateral			R.Thigh.Inferior			R.Patella			L.Thigh.Superior			L.Thigh.Lateral			L.Thigh.Inferior			L.Patella			L.Shank.Superior			L.Shank.Lateral			L.Shank.Inferior			R.Shank.Superior			R.Shank.Lateral			R.Shank.Inferior			R.Heel			R.Midfoot.Superior			R.Midfoot.Lateral			R.Toe			L.Heel			L.Midfoot.Lateral			L.Midfoot.Superior			L.Toe			L.Elbow			L.Wrist			R.Elbow			R.Wrist			
		X1	Y1	Z1	X2	Y2	Z2	X3	Y3	Z3	X4	Y4	Z4	X5	Y5	Z5	X6	Y6	Z6	X7	Y7	Z7	X8	Y8	Z8	X9	Y9	Z9	X10	Y10	Z10	X11	Y11	Z11	X12	Y12	Z12	X13	Y13	Z13	X14	Y14	Z14	X15	Y15	Z15	X16	Y16	Z16	X17	Y17	Z17	X18	Y18	Z18	X19	Y19	Z19	X20	Y20	Z20	X21	Y21	Z21	X22	Y22	Z22	X23	Y23	Z23	X24	Y24	Z24	X25	Y25	Z25	X26	Y26	Z26	X27	Y27	Z27	X28	Y28	Z28	X29	Y29	Z29	X30	Y30	Z30	X31	Y31	Z31	X32	Y32	Z32	X33	Y33	Z33	

53	6.152285714286	820.921795624788	1006.835758735438	539.267287813602	978.621058251954	1435.119031655462	343.077722915440	1098.230728217748	1369.920863926265	493.663536000817	1032.365358797522	1441.586094310005	675.769383194157	975.706871031820	1497.617785186255	500.551710134589	1057.711002688335	943.577747900376	639.372687464342	1023.017646428052	966.477336643125	367.479100298720	1085.578431019771	738.377567605669	604.880816330489	1002.887683515299	631.950202893017	669.796411720880	1071.277014276596	577.013065646767	584.858917775704	1065.863851564803	490.306874748186	589.783997096344	1112.022723732544	788.750393859093	387.908341470303	1070.080659303168	661.637356694422	306.836365159129	1179.429185541904	605.174043120433	362.282430943679	1200.146608989880	522.033136330430	351.165139516309	1149.148336113580	449.028516098101	341.224134287572	1022.091569159249	371.964417987452	297.756605317255	1052.089584340601	240.966072353634	341.927353789848	1035.414736582907	402.081157981888	597.659822138293	963.451603376920	300.686977562930	661.569391342904	997.308952221863	204.772060030245	595.521160434771	857.722591333161	42.950934093792	568.354588267526	1028.340741078160	96.559970163333	602.637716273515	941.424335843463	36.736892706320	641.952791126396	1149.588936507730	44.162289885678	629.426380880017	895.087324059173	121.318387419065	388.348563958737	953.564394015429	100.777892480036	299.113730240544	1053.817109280870	137.044962001938	313.940704435754	1155.699098278094	55.490290016653	266.454288318218	912.313122293614	1084.170780113396	240.084357133405	941.267934822378	824.628007644890	228.788578063266	1111.237720666631	1114.803270885571	817.736143252740	1359.357599680729	1095.514921814957	766.409142906586	
54	6.165214285714	821.068424626355	1007.275414915778	540.677842707456	977.865350594562	1435.149005650532	343.599674405967	1098.737416537105	1369.730339806770	493.047471870852	1034.785404989567	1441.734189327370	675.723051493493	976.649519583054	1497.617299760020	501.084542862795	1058.124610592771	943.184668058050	638.868577461872	1021.768130620472	966.830510367857	367.260580299568	1084.011935732279	737.700737784850	604.008175268219	1001.128352955653	631.775388175330	669.760424962850	1068.401420613311	576.357771226245	584.413163406877	1062.442718384901	489.727262781176	589.511427675813	1110.736708338937	789.536520616371	387.853147823241	1069.606650729350	662.379932766040	306.652396354469	1178.534372488236	606.269684849009	363.178526720118	1200.565003168142	524.570616456761	351.560283789831	1152.779862460390	451.062086254926	340.998389451646	1030.213711545389	367.405791675792	297.249720399022	1067.770277038506	237.741255747258	340.636213092472	1031.639638065398	401.691002006150	597.536500107060	959.445944879152	300.554629211864	661.615082391541	992.669058626937	204.535388839718	595.488232044540	852.505495059378	42.984465533833	568.418731019404	1023.148539859947	96.484919205994	602.623344408167	936.210191953714	36.698737079021	641.982133866206	1144.380277986558	44.058586322406	629.467743047415	918.113754597927	108.574937446021	386.993835087429	977.394267820161	92.310850710492	297.345588101711	1075.449424754443	134.259733297430	312.052902165787	1181.886462367033	59.304119343948	263.596627183886	904.628534824343	1085.150953399814	242.701709716580	926.085816221880	824.901024781190	233.546981457739	1119.113422163071	1116.459529024278	816.325854466013	1366.484932984598	1112.683991650087	760.867729538349	
55	6.178142857143	821.172883621452	1007.673286275669	541.894213599327	977.181799714819	1435.142459567250	343.967723044697	1099.278988260569	1369.436214973738	492.264659503079	1037.233774781421	1441.746421138607	675.505195320279	977.634913410170	1497.553402941425	501.454783039215	1058.501091256329	942.753262220658	638.221515116200	1020.556871194283	967.039453160708	366.890359797379	1082.439610780270	736.993254222391	603.141073447708	999.331268010600	631.582170714554	669.693088306769	1065.490482374117	575.691139035502	583.958558469991	1058.965810763753	489.151365171614	589.240775756774	1109.194745509635	789.909895544863	387.790268991972	1068.795863014775	662.801183825718	306.373788888217	1177.109008445654	606.870190938988	364.134861128069	1200.421813049082	526.748445654730	352.107885318667	1155.918074382702	452.879254991749	340.981992426481	1038.417125210104	362.847325901811	296.436749222710	1083.134094540907	234.971362227165	339.495686831243	1027.848172200687	401.299235542862	597.411651237648	955.409169448551	300.407488508077	661.643966089901	988.022003134328	204.290528913884	595.447306387595	847.277744435434	43.012624584882	568.480885672195	1017.950329078565	96.401938068135	602.586308780992	930.992285255870	36.660484135152	642.016826478796	1139.165012062837	43.968471363659	629.504372560616	941.030158052822	96.874113657745	385.154154091119	1001.369838329152	84.701210906505	295.513927170881	1096.845121116773	132.157256641581	310.559558078251	1207.626318760485	63.819340919381	261.964657648908	897.121261499761	1086.254670926680	245.201815831142	911.788507129576	825.556750959192	238.116379170256	1126.806129872959	1117.930530419974	814.551777209489	1372.447052604544	1129.088127125308	755.080285629264	
56	6.191071428571	821.237230110634	1008.029918342588	542.909945541321	976.582964682544	1435.108623387102	344.170079965334	1099.845320526922	1369.053616682002	491.324486365717	1039.671303505828	1441.635778346372	675.113979314382	978.643374917854	1497.438034515799	501.646852726706	1058.848074724015	942.299140696988	637.440769418461	1019.394590301794	967.120838409124	366.366259871704	1080.904695863464	736.258361238662	602.301785805275	997.505773294632	631.370396397414	669.578374218912	1062.577835505986	575.014718860974	583.494396003008	1055.465068441366	488.579559583574	588.954913698047	1107.432422319117	789.923678604059	387.731658320226	1067.690418139941	662.943061269896	306.001169854352	1175.253767893645	607.043307300870	365.068495706846	1199.802378554151	528.602373547893	352.773852218897	1158.597365614556	454.503880062487	341.173204164582	1046.637877901804	358.452200902709	295.334130107263	1097.954603847471	232.762204627308	338.560542340903	1024.057720494038	400.902525383179	597.265992465207	951.355497533151	300.251928960799	661.645061442204	983.379155485850	204.038962014408	595.385938539040	842.042963033258	43.035484270061	568.541023901596	1012.746954223434	96.315580511184	602.526834425649	925.771978545251	36.625483241610	642.056398478075	1133.944280924533	43.895167434585	629.536332999073	963.423219641585	86.482524376619	382.898453415934	1025.109200893141	78.129696487140	293.712890761217	1117.670385123474	130.822181566544	309.545593524446	1232.538911887316	68.991998997473	261.710740484323	889.870128752563	1087.463326939119	247.572259820021	898.415657134150	826.520603859716	242.430685900196	1134.300317550378	1119.224632626119	812.435341911625	1377.343248873953	1144.588617071179	749.096734242666	
